<svg width="1600" height="900" viewBox="0 0 1600 900" fill="none" xmlns="http://www.w3.org/2000/svg">
  <rect width="1600" height="900" fill="#050505"/>

  <g opacity="0.46">
    <circle cx="695" cy="448" r="510" stroke="white" stroke-opacity="0.08" stroke-width="2"/>
    <circle cx="695" cy="448" r="388" stroke="white" stroke-opacity="0.075" stroke-width="2"/>
    <circle cx="695" cy="448" r="266" stroke="white" stroke-opacity="0.06" stroke-width="2"/>
  </g>

  <g opacity="0.2">
    <path d="M96 133H1504" stroke="white" stroke-width="1"/>
    <path d="M96 767H1504" stroke="white" stroke-width="1"/>
    <path d="M96 133V767" stroke="white" stroke-width="1"/>
    <path d="M1504 133V767" stroke="white" stroke-width="1"/>
  </g>

  <g opacity="0.22" stroke="white" stroke-width="1">
    <path d="M300 186H438"/>
    <path d="M300 714H438"/>
    <path d="M1162 186H1300"/>
    <path d="M1162 714H1300"/>
    <path d="M368 118V256"/>
    <path d="M1230 118V256"/>
    <path d="M368 646V784"/>
    <path d="M1230 646V784"/>
  </g>

  <g transform="translate(1090 190)" opacity="0.9">
    <rect x="0" y="0" width="310" height="310" stroke="white" stroke-opacity="0.2" stroke-width="18"/>
    <rect x="46" y="46" width="310" height="310" stroke="white" stroke-opacity="0.28" stroke-width="18"/>
    <path d="M115 201H241" stroke="white" stroke-opacity="0.92" stroke-width="36"/>
    <path d="M178 138V264" stroke="white" stroke-opacity="0.92" stroke-width="36"/>
  </g>

  <g transform="translate(118 95)">
    <text x="0" y="0" fill="white" fill-opacity="0.48" font-family="'JetBrains Mono', 'SFMono-Regular', monospace" font-size="24" font-weight="500">PROTOCOL v1.0.0</text>
    <text x="1054" y="0" fill="white" fill-opacity="0.48" font-family="'JetBrains Mono', 'SFMono-Regular', monospace" font-size="24" font-weight="500" text-anchor="end">AGENT-NATIVE</text>
  </g>

  <g transform="translate(112 214)">
    <text x="0" y="195" fill="white" font-family="Inter, Arial, sans-serif" font-size="244" font-weight="900">RARE</text>
    <text x="6" y="366" fill="none" stroke="white" stroke-opacity="0.22" stroke-width="2" font-family="Inter, Arial, sans-serif" font-size="142" font-weight="900">PROTOCOL</text>
    <text x="6" y="458" fill="white" fill-opacity="0.86" font-family="Inter, Arial, sans-serif" font-size="52" font-weight="600">Agent-Native Identity Layer</text>
    <text x="8" y="526" fill="white" fill-opacity="0.56" font-family="'JetBrains Mono', 'SFMono-Regular', monospace" font-size="26" font-weight="400">Keys identify agents. Signatures prove control.</text>
  </g>

  <g transform="translate(980 558)">
    <path d="M0 0H420" stroke="white" stroke-opacity="0.16"/>
    <path d="M0 74H420" stroke="white" stroke-opacity="0.16"/>
    <path d="M0 148H420" stroke="white" stroke-opacity="0.16"/>
    <path d="M0 222H420" stroke="white" stroke-opacity="0.16"/>

    <g transform="translate(0 28)">
      <rect x="0" y="-18" width="38" height="38" stroke="white" stroke-opacity="0.58" stroke-width="2"/>
      <path d="M12 1H26M19 -6V8" stroke="white" stroke-opacity="0.85" stroke-width="3"/>
      <text x="62" y="8" fill="white" font-family="'JetBrains Mono', 'SFMono-Regular', monospace" font-size="30" font-weight="700">KEYS</text>
      <text x="62" y="39" fill="white" fill-opacity="0.52" font-family="Inter, Arial, sans-serif" font-size="20" font-weight="500">public-key agent identity</text>
    </g>

    <g transform="translate(0 102)">
      <path d="M0 18C12 2 26 2 38 18C50 34 64 34 76 18" stroke="white" stroke-opacity="0.78" stroke-width="4"/>
      <text x="96" y="8" fill="white" font-family="'JetBrains Mono', 'SFMono-Regular', monospace" font-size="30" font-weight="700">SIGNATURES</text>
      <text x="96" y="39" fill="white" fill-opacity="0.52" font-family="Inter, Arial, sans-serif" font-size="20" font-weight="500">verifiable action control</text>
    </g>

    <g transform="translate(0 176)">
      <path d="M19 -16L38 -8V12C38 27 28 39 19 44C10 39 0 27 0 12V-8L19 -16Z" stroke="white" stroke-opacity="0.78" stroke-width="3"/>
      <path d="M10 11L17 18L29 4" stroke="white" stroke-opacity="0.86" stroke-width="3"/>
      <text x="62" y="8" fill="white" font-family="'JetBrains Mono', 'SFMono-Regular', monospace" font-size="30" font-weight="700">PORTABLE TRUST</text>
      <text x="62" y="39" fill="white" fill-opacity="0.52" font-family="Inter, Arial, sans-serif" font-size="20" font-weight="500">trust across platforms</text>
    </g>
  </g>

  <g transform="translate(118 810)">
    <text x="0" y="0" fill="white" fill-opacity="0.45" font-family="'JetBrains Mono', 'SFMono-Regular', monospace" font-size="24" font-weight="500">rareid.cc</text>
    <text x="190" y="0" fill="white" fill-opacity="0.22" font-family="'JetBrains Mono', 'SFMono-Regular', monospace" font-size="24" font-weight="500">/</text>
    <text x="230" y="0" fill="white" fill-opacity="0.45" font-family="'JetBrains Mono', 'SFMono-Regular', monospace" font-size="24" font-weight="500">@rareaip</text>
  </g>
</svg>
